<svg xmlns="http://www.w3.org/2000/svg" viewBox="0 0 542 439"><defs><style>.cls-1{fill:#fff;stroke:#fff;stroke-miterlimit:10;stroke-width:13px;}</style></defs><g id="Layer_2" data-name="Layer 2"><g id="code_angles" data-name="code angles"><path class="cls-1" d="M140.9,176.35l59.75-59.75L140.9,176.35,201,229.5Z"/><path class="cls-1" d="M341.06,229.69,400.87,170l-60.05-53.21L400.87,170Z"/><path class="cls-1" d="M525.5,6.5H16.5a10,10,0,0,0-10,10v343a10,10,0,0,0,10,10L227,371l-12.5,48.5h-20v13h153v-13h-20l-10.5-50H525.5a10,10,0,0,0,10-10V16.5A10,10,0,0,0,525.5,6.5Zm-9.31,309H25.81V30H516.19Z"/></g></g></svg>