<svg xmlns="http://www.w3.org/2000/svg" viewBox="0 0 79 79"><defs><style>.cls-1{fill:#fff;}</style></defs><g id="Layer_2" data-name="Layer 2"><g id="Layer_1-2" data-name="Layer 1"><rect class="cls-1" width="79" height="79" rx="13"/><path d="M17.38,21.41a61.77,61.77,0,0,1,10.37-.76c4.94,0,8.55,1,10.91,3a10.42,10.42,0,0,1,3.63,8.2,11.33,11.33,0,0,1-3.16,8.4c-2.72,2.7-6.91,4-11.72,4A16.15,16.15,0,0,1,24.1,44V58H17.38ZM24.1,38.69a13.74,13.74,0,0,0,3.32.31c5.06,0,8.15-2.53,8.15-6.87,0-4.08-2.86-6.28-7.55-6.28a19.56,19.56,0,0,0-3.92.32Z"/><path d="M46.41,51.77a14.82,14.82,0,0,0,6.83,2c3,0,4.31-1.25,4.31-3s-1.1-2.73-4.39-3.9c-5.24-1.8-7.43-4.65-7.4-7.82,0-4.71,3.91-8.38,10.16-8.38a15.46,15.46,0,0,1,7.1,1.6L61.67,37A12.22,12.22,0,0,0,56,35.43c-2.41,0-3.75,1.19-3.75,2.84s1.29,2.52,4.68,3.75c4.87,1.72,7.12,4.21,7.14,8.15,0,4.89-3.8,8.41-10.87,8.41a17.35,17.35,0,0,1-8.16-1.88Z"/></g></g></svg>