<svg xmlns="http://www.w3.org/2000/svg" viewBox="0 0 330.15 225.3"><defs><style>.cls-1{fill:#fff;}.cls-2{fill:none;stroke:#fff;stroke-miterlimit:10;stroke-width:2px;}</style></defs><g id="Layer_2" data-name="Layer 2"><g id="Layer_1-2" data-name="Layer 1"><path class="cls-1" d="M126.57,3.33l78.9,0,78.89,0h44.26a1.5,1.5,0,0,0,0-3l-78.71,0L171,.34H126.57a1.5,1.5,0,0,0,0,3Z"/><path class="cls-1" d="M125,1.57a408.69,408.69,0,0,1-.18,41.12c-.11,1.93,2.89,1.92,3,0A408.69,408.69,0,0,0,128,1.57c-.09-1.92-3.09-1.93-3,0Z"/><path class="cls-1" d="M126.61,44.39c7.78-.32,15.56-.63,23.35-.65,7.52,0,15,.37,22.54.55,15.34.37,30.68.41,46,.2,7.6-.11,15.22-.14,22.8-.68A185,185,0,0,0,262.68,41,185.43,185.43,0,0,0,304.21,28c11.39-5.12,24.2-13,25.92-26.54.24-1.91-2.76-1.9-3,0-1.45,11.4-12.72,18.45-22.19,22.92a178,178,0,0,1-40.35,13.26,181,181,0,0,1-21,3c-7.21.61-14.45.69-21.68.81-15,.24-30.09.25-45.13,0-8.29-.17-16.58-.6-24.87-.64-8.45,0-16.88.29-25.31.64-1.93.08-1.94,3.08,0,3Z"/><path class="cls-1" d="M127.54.06C95.67.45,63.79.72,31.92,1.24A76.1,76.1,0,0,0,21.14,2a39.64,39.64,0,0,0-10.4,3.3c-1.74.82-.22,3.4,1.52,2.59,5.92-2.77,12.12-3.5,18.59-3.64,7.77-.16,15.54-.2,23.31-.3l46.92-.58,26.46-.32c1.93,0,1.94-3,0-3Z"/><path class="cls-1" d="M10.63,5C3.72,9.11-1.49,17.35.39,25.64a12.94,12.94,0,0,0,6.77,8.92,9.21,9.21,0,0,0,5.92.6c2.43-.53,4.53-1.94,6.79-2.91,4.8-2.07,10.14-2.44,15.3-2.55,5.57-.13,11.15-.1,16.73-.14l34.45-.24L125,29a1.5,1.5,0,0,0,0-3l-64.93.46-16.38.12a147,147,0,0,0-15,.45,39.76,39.76,0,0,0-7.1,1.37,47.06,47.06,0,0,0-6.53,2.81c-1.86.89-3.85,1.52-5.88.9a8,8,0,0,1-3.92-2.92c-2.66-3.54-2.67-8-1.3-12a18.15,18.15,0,0,1,8.17-9.61A1.5,1.5,0,0,0,10.63,5Z"/><path class="cls-1" d="M167.59,32.21c15.83-.64,31.66,0,47.49.09s31.68-.51,47.22-3.56a128.53,128.53,0,0,0,25.89-7.94c1.77-.76.25-3.35-1.51-2.59-14.54,6.24-30.22,9.18-45.93,10.34s-31.27.7-46.89.48c-8.76-.12-17.52-.17-26.27.18-1.92.08-1.93,3.08,0,3Z"/><rect class="cls-2" x="49.13" y="65.3" width="231" height="159" rx="15"/><path class="cls-1" d="M223.67,113.79c3.64-1.13,7.28.37,10.27,2.47a22.93,22.93,0,0,1,7.52,8.8c.81,1.75,3.4.23,2.59-1.51a25.85,25.85,0,0,0-8.85-10c-3.58-2.45-8-3.93-12.33-2.6-1.84.57-1.06,3.46.8,2.89Z"/><path class="cls-1" d="M227.79,113.52c3.58,0,6.9,2.46,9.34,4.88s4.35,5.39,4.38,8.91a22.3,22.3,0,0,1-2.58,9.46c-1.4,3-3,5.86-4.61,8.74-3.47,6.28-7.38,12.39-12.79,17.19a120,120,0,0,1-19.43,13.54A91.51,91.51,0,0,1,181,185.57c-3.33.93-7.05,2-10.55,2-1.19,0-3.4-.17-4-1.47s1.26-2.32,2.21-2.8c6.68-3.44,13.13-7,19-11.76a83.64,83.64,0,0,0,15.17-16.49,79.83,79.83,0,0,0,10.36-20.34c2-5.88,2.35-12.83,6.36-17.83a10.27,10.27,0,0,1,3.94-3c1.76-.76.24-3.35-1.52-2.59-6.74,2.94-8.63,11.07-10.23,17.49a73.69,73.69,0,0,1-9.39,21.65,81.27,81.27,0,0,1-16.13,18.47,75.46,75.46,0,0,1-10,7.08c-1.78,1.06-3.6,2.06-5.44,3a40.38,40.38,0,0,0-4.88,2.55,5.25,5.25,0,0,0-2.5,4,4.49,4.49,0,0,0,2.31,3.94c3.12,1.89,7.1,1.09,10.45.39a85.83,85.83,0,0,0,23.11-8.53,141.55,141.55,0,0,0,21.48-14,61.51,61.51,0,0,0,14.84-17.84c1.83-3.18,3.61-6.42,5.26-9.7a32.22,32.22,0,0,0,3.52-10.13,14.12,14.12,0,0,0-2.47-10.16,23.64,23.64,0,0,0-8.45-7.44,12,12,0,0,0-5.64-1.45,1.5,1.5,0,0,0,0,3Z"/><path class="cls-1" d="M240.81,115.2c.15-.55.32-1.08.52-1.61.06-.16.3-1,.09-.25s0-.06.12-.22a18.46,18.46,0,0,1,1.54-2.65c.15-.23.33-.44.48-.67-.69,1-.2.27,0,0s.61-.69.93-1,.79-.76,1.2-1.12c.14-.12.8-.54.18-.17s.18-.12.31-.21a17.57,17.57,0,0,1,2.58-1.51c.19-.1.43-.16.61-.28-.89.58-.48.2-.07,0s1-.31,1.43-.43,1-.22,1.46-.31c.85-.15-1.06.07-.12,0l.68-.05c.51,0,1,0,1.52,0l.84.07c.89.07-1-.17-.08,0,2.32.39,5-.6,5.54-3.14.49-2.17-.66-5.12-3.14-5.54a21.17,21.17,0,0,0-15.79,3.36,24.23,24.23,0,0,0-9.5,13.25,4.5,4.5,0,0,0,8.68,2.39Z"/><path class="cls-1" d="M220.68,113.07c.18,1.15-.57,2.41-.54,3.59a3.75,3.75,0,0,0,2.18,3.35,6,6,0,0,0,3.93.13c.78-.18,2.55-1,3.28-.45.37.27.42,1,.53,1.38a15.1,15.1,0,0,0,.55,1.6,7,7,0,0,0,1.78,2.74,4.19,4.19,0,0,0,3.16,1,6.47,6.47,0,0,0,1.82-.54c.25-.11,1-.46,1.3-.31.52.27.58,2.29.74,2.89a5.59,5.59,0,0,0,2.53,3.49,1.5,1.5,0,0,0,1.51-2.59c-2-1.21-1-4.31-2.57-5.91a3.57,3.57,0,0,0-3.29-.77c-.85.17-1.78.93-2.66.76-1.59-.31-1.89-3.07-2.27-4.29-1-3.27-4.4-2.6-6.93-2-.82.2-2.55.65-2.59-.66a8.13,8.13,0,0,1,.35-1.82,6.36,6.36,0,0,0,.08-2.42,1.5,1.5,0,0,0-1.84-1,1.53,1.53,0,0,0-1,1.84Z"/><path class="cls-1" d="M107.85,151.17c2.77,1.31,4.61,3.67,7.2,5.23a12.65,12.65,0,0,0,5.76,1.67,38.61,38.61,0,0,0,6.8,0c1.8-.16,4-.33,5.51-1.41,2.38-1.65,2.48-5.67,2.68-8.26a37,37,0,0,0-.58-9.91,33.07,33.07,0,0,0-9-17.17c-9.18-9.09-23.52-12.4-35.24-6.36-12,6.2-17.26,19.48-17,32.44a49.53,49.53,0,0,0,.39,5.3,5.45,5.45,0,0,0,2.7,4c1.65,1,3.88,1,5.77,1.08a20.18,20.18,0,0,0,5.74-.67c3.7-1,6.49-3.7,10-5.16,2.67-1.12,6.33-1.79,9.11-.75,1.81.67,2.6-2.23.8-2.9a14.11,14.11,0,0,0-7.41-.17,21.39,21.39,0,0,0-7.36,3.12c-2.85,1.76-5.61,3.28-9,3.49a24.39,24.39,0,0,1-4.52-.15,2.94,2.94,0,0,1-2.86-2.74c-1.29-11.5,1.44-24.22,11-31.64a25.24,25.24,0,0,1,16.07-5.44,29.47,29.47,0,0,1,16,5.44c9.92,7,14.37,19.68,12.13,31.45a7,7,0,0,1-.67,2.15c-.23.43-.21.37-.61.53a12.19,12.19,0,0,1-2.29.56,34.17,34.17,0,0,1-6.93.21,10.59,10.59,0,0,1-5.31-1.34,22.62,22.62,0,0,1-3.11-2.51,17.25,17.25,0,0,0-4.09-2.72c-1.73-.81-3.26,1.77-1.51,2.59Z"/><path class="cls-1" d="M96.85,151.1c-1,3-1.84,6.11-2.69,9.18s-2.1,6.2-2.72,9.37c-1,5.09-1.3,11.48,3.09,15.12a18.55,18.55,0,0,0,3.29,1.87,7.18,7.18,0,0,0,2.5.76c1.45.22,2.72.91,4.23,1,5.88.37,12.93-4.68,12.73-10.92a43.7,43.7,0,0,0-.89-6l-1.17-6.8L113,151.58c-.33-1.9-3.22-1.1-2.89.79l3.58,20.86a24.24,24.24,0,0,1,.63,4.71,6.14,6.14,0,0,1-2,4.18,10.45,10.45,0,0,1-6.67,3.29,8.21,8.21,0,0,1-3.42-.62,11.7,11.7,0,0,0-2-.41,5.65,5.65,0,0,1-1.41-.6l-.21-.06c-.28-.11-.22-.09-.17-.06a8.12,8.12,0,0,1-1.54-.89c-3.75-2.76-3.28-8.28-2.49-12.32.63-3.17,1.86-6.26,2.72-9.38s1.67-6.15,2.7-9.17c.62-1.83-2.28-2.62-2.9-.8Z"/></g></g></svg>